<?xml version="1.0" standalone="no"?><!DOCTYPE svg PUBLIC "-//W3C//DTD SVG 1.1//EN" "http://www.w3.org/Graphics/SVG/1.1/DTD/svg11.dtd"><svg t="1584453848956" class="icon" viewBox="0 0 1024 1024" version="1.1" xmlns="http://www.w3.org/2000/svg" p-id="11711" xmlns:xlink="http://www.w3.org/1999/xlink" width="32" height="32"><defs><style type="text/css"></style></defs><path d="M128 0h768a128 128 0 0 1 128 128v768a128 128 0 0 1-128 128H128a128 128 0 0 1-128-128V128a128 128 0 0 1 128-128z m648.128 290.368l-23.744 23.232c17.792 23.168 23.744 52.16 23.744 86.976 17.92-23.232 41.6-40.576 59.52-57.984 11.84-11.584 11.84-34.816-5.952-52.224-11.904-11.584-35.712-11.584-53.568 0z m-576.768 0c-17.856 17.408-17.856 40.64 0 57.984l53.504 52.224c-5.952-28.992 5.952-57.984 23.808-87.04-5.952-11.52-11.904-17.344-17.856-23.168-17.856-17.408-41.6-17.408-59.456 0zM128 563.008c0 17.344 17.856 34.752 41.6 34.752h77.312V516.48H157.76c-17.92 5.76-29.76 23.232-29.76 46.4z m166.528 260.928c11.84-5.76 17.792-17.408 29.696-23.232-17.856-23.168-29.696-46.4-47.552-69.568l-35.712 34.816c-17.792 11.52-11.84 34.752 0 52.16 11.904 17.408 35.712 17.408 53.568 5.76z m184.32 5.76c5.952 0 5.952 0 0 0 5.952-23.168 5.952-359.552 0-359.552 0-23.168-11.904-46.4-35.712-63.808-35.648-23.168-77.312-46.336-112.96-69.568-5.952-5.76-11.904 0-11.904 0A94.912 94.912 0 0 0 288.64 406.4v174.016c5.952 23.168 0 52.16 5.952 75.392 11.84 52.16 41.6 98.56 83.2 133.376 35.712 28.992 53.568 34.816 101.12 40.576z m0-475.52a63.808 63.808 0 0 0 77.312 0c41.6-23.168 77.248-46.4 118.912-69.568 5.952 0 5.952-5.824 5.952-5.824C675.072 197.568 603.712 128 520.448 128h-17.856c-83.2 11.584-142.72 75.392-142.72 150.784l5.952 5.76c35.712 23.232 77.312 46.464 113.024 69.632z m89.152 475.52c59.52-5.76 89.216-34.752 130.816-86.976 23.808-34.816 41.6-75.392 41.6-115.968V394.752c0-28.992-11.84-52.16-29.696-69.568-5.952 0-5.952-5.76-11.904 0-35.648 23.168-71.296 40.576-107.008 63.808-29.696 17.344-41.6 40.576-41.6 75.392 0 17.408-5.952 353.728-5.952 365.312h23.744z m225.984-11.52c11.904-11.648 17.856-40.64 5.952-52.224l-35.712-34.816c-17.792 23.168-29.696 46.4-47.552 69.568 5.952 5.76 11.904 17.408 23.808 23.232 17.856 11.52 41.6 11.52 53.504-5.76z m59.52-220.416c23.68 0 47.488-17.408 41.6-40.64 0-23.168-17.92-40.576-41.6-40.576h-77.376V597.76h77.312z" p-id="11712"></path></svg>