<?xml version="1.0" standalone="no"?><!DOCTYPE svg PUBLIC "-//W3C//DTD SVG 1.1//EN" "http://www.w3.org/Graphics/SVG/1.1/DTD/svg11.dtd"><svg t="1584454125744" class="icon" viewBox="0 0 1024 1024" version="1.1" xmlns="http://www.w3.org/2000/svg" p-id="13204" xmlns:xlink="http://www.w3.org/1999/xlink" width="32" height="32"><defs><style type="text/css"></style></defs><path d="M767 512.031c0 140.833-114.167 255-255 255s-255-114.167-255-255 114.167-255 255-255 255 114.167 255 255z m-450 0c0 107.7 87.3 195 195 195s195-87.3 195-195-87.3-195-195-195-195 87.3-195 195z m225-110v80h80a30 30 0 0 1 0 60H512a30 30 0 0 1-30-30v-110a30 30 0 0 1 60 0zM512 959C265.129 959 65 758.871 65 512a445.261 445.261 0 0 1 108.837-292.333l-48.441 0.35a30.104 30.104 0 0 1-0.426-60.206l120.125-0.867a30.063 30.063 0 0 1 30.244 29.887l0.852 120.412a30.032 30.032 0 1 1-60.062 0.433l-0.329-46.72A385.421 385.421 0 0 0 125 511.995C125 725.731 298.266 899 512 899s387-173.269 387-387.005c0-213.524-172.924-386.653-386.366-387-0.213 0-0.42 0.032-0.634 0.032a30 30 0 0 1 0-60V65c246.871 0 447 200.128 447 447S758.871 959 512 959z" fill="#333333" p-id="13205"></path></svg>